<svg width="32" height="32" viewBox="0 0 32 32" fill="none" xmlns="http://www.w3.org/2000/svg">
  <path
    d="M9.05136 3.02295L10.9485 2.45152C11.8121 2.19098 12.741 2.25362 13.5618 2.62774C14.3826 3.00187 15.0392 3.66191 15.4091 4.48466L16.5896 7.11095C16.9078 7.81845 16.9964 8.6078 16.8431 9.36822C16.6897 10.1286 16.3022 10.822 15.7348 11.351L13.6719 13.2744C13.6472 13.2989 13.6264 13.327 13.6102 13.3578C13.3942 13.799 13.7222 14.9772 14.7496 16.7578C15.9085 18.7647 16.8034 19.5578 17.2182 19.4355L19.9256 18.607C20.6671 18.3805 21.4608 18.3918 22.1956 18.6392C22.9303 18.8865 23.5692 19.3576 24.0228 19.9864L25.7005 22.3098C26.2272 23.0393 26.4712 23.9353 26.3871 24.8311C26.303 25.727 25.8966 26.5619 25.2434 27.1807L23.7999 28.5464C23.298 29.0218 22.6885 29.3688 22.0234 29.5576C21.3583 29.7465 20.6574 29.7717 19.9805 29.6309C15.9611 28.7944 12.3599 25.5578 9.14621 19.9921C5.93136 14.4229 4.92907 9.68009 6.2205 5.77952C6.43668 5.1265 6.80687 4.5351 7.29979 4.05531C7.79271 3.57552 8.39274 3.22143 9.05136 3.02295ZM9.5485 4.66409C9.15331 4.78312 8.79258 4.99553 8.49678 5.28337C8.20099 5.5712 7.97883 5.92601 7.84907 6.31781C6.73593 9.67895 7.63764 13.9487 10.6319 19.135C13.6239 24.3178 16.8674 27.2321 20.3314 27.9521C20.7375 28.0364 21.158 28.0212 21.5571 27.9077C21.9561 27.7943 22.3217 27.586 22.6228 27.3007L24.0651 25.9361C24.417 25.603 24.6359 25.1535 24.6814 24.671C24.7268 24.1886 24.5955 23.7061 24.3119 23.3132L22.6342 20.9887C22.39 20.6502 22.0461 20.3966 21.6505 20.2633C21.255 20.1301 20.8277 20.124 20.4285 20.2458L17.7142 21.0767C16.2125 21.5235 14.7999 20.2721 13.2662 17.6138C11.9668 15.3647 11.5165 13.7395 12.0719 12.6047C12.1801 12.3837 12.3241 12.189 12.5039 12.0207L14.5668 10.0972C14.8724 9.81241 15.0812 9.43903 15.1638 9.02949C15.2464 8.61996 15.1987 8.19484 15.0274 7.81381L13.8456 5.18866C13.6465 4.74553 13.2929 4.39003 12.8508 4.18856C12.4087 3.98708 11.9084 3.9534 11.4434 4.09381L9.5485 4.66409Z"
    fill="white"/>
</svg>
