<svg width="32" height="32" viewBox="0 0 32 32" fill="none" xmlns="http://www.w3.org/2000/svg">
  <path
    d="M16 26.6667L6.24004 14.4667C5.79604 13.912 5.57337 13.6347 5.5147 13.3013C5.45604 12.968 5.56804 12.6307 5.79204 11.9573L6.78404 8.98C7.3707 7.22 7.66404 6.34 8.3627 5.83733C9.06137 5.33467 9.98937 5.33333 11.844 5.33333H20.156C22.0107 5.33333 22.9387 5.33333 23.636 5.83733C24.336 6.34 24.6294 7.22 25.216 8.98L26.208 11.9573C26.432 12.6307 26.544 12.9667 26.4854 13.3013C26.4254 13.6347 26.204 13.912 25.76 14.4667L16 26.6667ZM16 26.6667L20.6667 12M16 26.6667L11.3334 12M20.6667 12L26 13.3333M20.6667 12L18.6667 6.66667M20.6667 12H11.3334M11.3334 12L13.3334 6.66667M11.3334 12L6.00004 13.3333"
    stroke="white" stroke-width="2" stroke-linecap="round"/>
</svg>
