<svg width="33" height="32" viewBox="0 0 33 32" fill="none" xmlns="http://www.w3.org/2000/svg">
  <path
    d="M28.4133 14.6787V11.724C28.415 11.0148 28.2269 10.318 27.8684 9.7061C27.5099 9.09416 26.9941 8.58932 26.3747 8.244L18.432 3.83467C17.8412 3.50589 17.1762 3.33333 16.5 3.33333C15.8238 3.33333 15.1589 3.50589 14.568 3.83467L6.62535 8.24267C6.00569 8.5881 5.48981 9.09315 5.13131 9.70534C4.77281 10.3175 4.58475 11.0146 4.58668 11.724V20.276C4.58499 20.9852 4.77316 21.682 5.13165 22.2939C5.49014 22.9058 6.00588 23.4107 6.62535 23.756L14.568 28.1653C15.1589 28.4941 15.8238 28.6667 16.5 28.6667C17.1762 28.6667 17.8412 28.4941 18.432 28.1653L21.7947 26.2987"
    stroke="white" stroke-width="2" stroke-linecap="round" stroke-linejoin="round"/>
  <path
    d="M27.6067 9.328L16.5 16M16.5 16L5.39337 9.328M16.5 16V28.6533M23.788 21.328L25.6654 23.204C25.7312 23.2711 25.8097 23.3244 25.8963 23.3609C25.983 23.3973 26.076 23.416 26.17 23.416C26.264 23.416 26.3571 23.3973 26.4437 23.3609C26.5304 23.3244 26.6089 23.2711 26.6747 23.204L30.4547 19.4227"
    stroke="white" stroke-width="2" stroke-linecap="round" stroke-linejoin="round"/>
</svg>
