<svg width="107" height="107" viewBox="0 0 107 107" fill="none" xmlns="http://www.w3.org/2000/svg">
  <path
    d="M98.0833 13.375H57.9584M75.7917 31.2083H62.4167M78.0208 93.625C73.8824 93.625 69.9134 91.981 66.987 89.0547C64.0607 86.1283 62.4167 82.1593 62.4167 78.0208V13.375H93.625V78.0208C93.625 82.1593 91.981 86.1283 89.0547 89.0547C86.1283 91.981 82.1593 93.625 78.0208 93.625ZM44.5834 75.2344C44.5834 88.7788 35.6667 93.625 26.75 93.625C17.8334 93.625 8.91669 88.7788 8.91669 75.2344C8.91669 61.69 26.75 44.5833 26.75 44.5833C26.75 44.5833 44.5834 61.69 44.5834 75.2344Z"
    stroke="white" stroke-width="5" stroke-linecap="round" stroke-linejoin="round"/>
  <path d="M62.4167 53.5C67.2451 49.6391 72.6575 44.0395 79.2291 47.9851C84.7128 51.2753 89.3183 47.8112 93.625 44.5834"
        stroke="white" stroke-width="5" stroke-linecap="round" stroke-linejoin="round"/>
</svg>
