<svg width="36" height="36" viewBox="0 0 36 36" fill="none" xmlns="http://www.w3.org/2000/svg">
  <path
    d="M16.029 18.1065L23.454 10.6815C23.7272 10.3986 23.8784 10.0197 23.875 9.62637C23.8716 9.23308 23.7138 8.85686 23.4357 8.57874C23.1576 8.30063 22.7814 8.14288 22.3881 8.13946C21.9948 8.13604 21.6159 8.28723 21.333 8.56047L12.8475 17.046C12.5663 17.3273 12.4083 17.7087 12.4083 18.1065C12.4083 18.5042 12.5663 18.8857 12.8475 19.167L21.333 27.6525C21.6159 27.9257 21.9948 28.0769 22.3881 28.0735C22.7814 28.0701 23.1576 27.9123 23.4357 27.6342C23.7138 27.3561 23.8716 26.9799 23.875 26.5866C23.8784 26.1933 23.7272 25.8144 23.454 25.5315L16.029 18.1065Z" fill="currentColor"/>
</svg>
