<svg width="32" height="33" viewBox="0 0 32 33" fill="none" xmlns="http://www.w3.org/2000/svg">
  <path
    d="M25 28.5H18.8175C19.856 27.5726 20.8354 26.581 21.75 25.5312C25.1812 21.585 27 17.425 27 13.5C27 10.5826 25.8411 7.78473 23.7782 5.72183C21.7153 3.65893 18.9174 2.5 16 2.5C13.0826 2.5 10.2847 3.65893 8.22183 5.72183C6.15893 7.78473 5 10.5826 5 13.5C5 17.425 6.81375 21.585 10.25 25.5312C11.1646 26.581 12.144 27.5726 13.1825 28.5H7C6.73478 28.5 6.48043 28.6054 6.29289 28.7929C6.10536 28.9804 6 29.2348 6 29.5C6 29.7652 6.10536 30.0196 6.29289 30.2071C6.48043 30.3946 6.73478 30.5 7 30.5H25C25.2652 30.5 25.5196 30.3946 25.7071 30.2071C25.8946 30.0196 26 29.7652 26 29.5C26 29.2348 25.8946 28.9804 25.7071 28.7929C25.5196 28.6054 25.2652 28.5 25 28.5ZM7 13.5C7 11.1131 7.94821 8.82387 9.63604 7.13604C11.3239 5.44821 13.6131 4.5 16 4.5C18.3869 4.5 20.6761 5.44821 22.364 7.13604C24.0518 8.82387 25 11.1131 25 13.5C25 20.6537 18.0662 26.625 16 28.25C13.9338 26.625 7 20.6537 7 13.5ZM21 13.5C21 12.5111 20.7068 11.5444 20.1573 10.7221C19.6079 9.8999 18.827 9.25904 17.9134 8.8806C16.9998 8.50216 15.9945 8.40315 15.0245 8.59607C14.0546 8.789 13.1637 9.2652 12.4645 9.96447C11.7652 10.6637 11.289 11.5546 11.0961 12.5245C10.9031 13.4945 11.0022 14.4998 11.3806 15.4134C11.759 16.327 12.3999 17.1079 13.2221 17.6573C14.0444 18.2068 15.0111 18.5 16 18.5C17.3261 18.5 18.5979 17.9732 19.5355 17.0355C20.4732 16.0979 21 14.8261 21 13.5ZM13 13.5C13 12.9067 13.1759 12.3266 13.5056 11.8333C13.8352 11.3399 14.3038 10.9554 14.8519 10.7284C15.4001 10.5013 16.0033 10.4419 16.5853 10.5576C17.1672 10.6734 17.7018 10.9591 18.1213 11.3787C18.5409 11.7982 18.8266 12.3328 18.9424 12.9147C19.0581 13.4967 18.9987 14.0999 18.7716 14.6481C18.5446 15.1962 18.1601 15.6648 17.6667 15.9944C17.1734 16.3241 16.5933 16.5 16 16.5C15.2044 16.5 14.4413 16.1839 13.8787 15.6213C13.3161 15.0587 13 14.2956 13 13.5Z"
    fill="white"/>
</svg>
