<svg width="34" height="34" viewBox="0 0 34 34" fill="none" xmlns="http://www.w3.org/2000/svg">
  <path
    d="M25.9248 8.08918C25.7938 7.95785 25.6381 7.85366 25.4667 7.78257C25.2953 7.71148 25.1116 7.67488 24.9261 7.67488C24.7405 7.67488 24.5568 7.71148 24.3854 7.78257C24.2141 7.85366 24.0584 7.95785 23.9273 8.08918L16.9998 15.0025L10.0723 8.07501C9.94117 7.94385 9.78546 7.83981 9.6141 7.76883C9.44273 7.69785 9.25906 7.66132 9.07358 7.66132C8.88809 7.66132 8.70442 7.69785 8.53306 7.76883C8.36169 7.83981 8.20599 7.94385 8.07483 8.07501C7.94367 8.20617 7.83963 8.36188 7.76865 8.53324C7.69767 8.70461 7.66113 8.88828 7.66113 9.07376C7.66113 9.25925 7.69767 9.44292 7.76865 9.61428C7.83963 9.78565 7.94367 9.94135 8.07483 10.0725L15.0023 17L8.07483 23.9275C7.94367 24.0587 7.83963 24.2144 7.76865 24.3857C7.69767 24.5571 7.66113 24.7408 7.66113 24.9263C7.66113 25.1117 7.69767 25.2954 7.76865 25.4668C7.83963 25.6381 7.94367 25.7939 8.07483 25.925C8.20599 26.0562 8.36169 26.1602 8.53306 26.2312C8.70442 26.3022 8.88809 26.3387 9.07358 26.3387C9.25906 26.3387 9.44273 26.3022 9.6141 26.2312C9.78546 26.1602 9.94117 26.0562 10.0723 25.925L16.9998 18.9975L23.9273 25.925C24.0585 26.0562 24.2142 26.1602 24.3856 26.2312C24.5569 26.3022 24.7406 26.3387 24.9261 26.3387C25.1116 26.3387 25.2952 26.3022 25.4666 26.2312C25.638 26.1602 25.7937 26.0562 25.9248 25.925C26.056 25.7939 26.16 25.6381 26.231 25.4668C26.302 25.2954 26.3385 25.1117 26.3385 24.9263C26.3385 24.7408 26.302 24.5571 26.231 24.3857C26.16 24.2144 26.056 24.0587 25.9248 23.9275L18.9973 17L25.9248 10.0725C26.4632 9.53418 26.4632 8.62751 25.9248 8.08918Z"
    fill="#196CA8"/>
</svg>
