<svg width="107" height="107" viewBox="0 0 107 107" fill="none" xmlns="http://www.w3.org/2000/svg">
  <path
    d="M62.4167 13.375V31.2083C62.4167 32.3908 62.8864 33.5247 63.7225 34.3608C64.5586 35.1969 65.6926 35.6667 66.875 35.6667H84.7083"
    stroke="white" stroke-width="5" stroke-linecap="round" stroke-linejoin="round"/>
  <path
    d="M53.5 93.625H31.2083C28.8435 93.625 26.5755 92.6856 24.9033 91.0134C23.2311 89.3412 22.2917 87.0732 22.2917 84.7083V22.2917C22.2917 19.9268 23.2311 17.6588 24.9033 15.9866C26.5755 14.3144 28.8435 13.375 31.2083 13.375H62.4167L84.7083 35.6667V55.7292"
    stroke="white" stroke-width="5" stroke-linecap="round" stroke-linejoin="round"/>
  <path
    d="M82.4792 86.9375L93.625 98.0833M62.4167 78.0208C62.4167 80.9769 63.5909 83.8119 65.6812 85.9021C67.7714 87.9924 70.6064 89.1667 73.5625 89.1667C76.5185 89.1667 79.3535 87.9924 81.4438 85.9021C83.534 83.8119 84.7083 80.9769 84.7083 78.0208C84.7083 75.0648 83.534 72.2298 81.4438 70.1395C79.3535 68.0493 76.5185 66.875 73.5625 66.875C70.6064 66.875 67.7714 68.0493 65.6812 70.1395C63.5909 72.2298 62.4167 75.0648 62.4167 78.0208Z"
    stroke="white" stroke-width="5" stroke-linecap="round" stroke-linejoin="round"/>
</svg>
