<svg width="107" height="107" viewBox="0 0 107 107" fill="none" xmlns="http://www.w3.org/2000/svg">
  <path
    d="M62.4167 13.375V31.2083C62.4167 32.3908 62.8864 33.5247 63.7225 34.3608C64.5586 35.1969 65.6926 35.6667 66.875 35.6667H84.7083"
    stroke="white" stroke-width="5" stroke-linecap="round" stroke-linejoin="round"/>
  <path
    d="M53.5 93.625H31.2083C28.8435 93.625 26.5755 92.6856 24.9033 91.0134C23.2311 89.3412 22.2917 87.0732 22.2917 84.7083V22.2917C22.2917 19.9268 23.2311 17.6588 24.9033 15.9866C26.5755 14.3144 28.8435 13.375 31.2083 13.375H62.4167L84.7083 35.6667V55.7292"
    stroke="white" stroke-width="5" stroke-linecap="round" stroke-linejoin="round"/>
  <path
    d="M77 92.1979C79.55 92.1979 81.675 93.9999 83.8 93.9999C88.9 93.9999 94 80.3999 94 73.2259C93.9421 71.024 93.0161 68.9342 91.4239 67.412C89.8317 65.8899 87.7023 65.0588 85.5 65.0999C81.726 65.0999 78.7 67.5479 77 68.4999C75.3 67.5479 72.274 65.0999 68.5 65.0999C66.2964 65.0543 64.1645 65.8839 62.5713 67.407C60.9781 68.9301 60.0535 71.0225 60 73.2259C60 80.3999 65.1 93.9999 70.2 93.9999C72.325 93.9999 74.45 92.1979 77 92.1979Z"
    stroke="white" stroke-width="5" stroke-linecap="round" stroke-linejoin="round"/>
  <path d="M73.6 60C75.3 60.85 77 63.4 77 68.5" stroke="white" stroke-width="5" stroke-linecap="round"
        stroke-linejoin="round"/>
</svg>
