<svg width="40" height="41" viewBox="0 0 40 41" fill="none" xmlns="http://www.w3.org/2000/svg">
  <path
    d="M13.7784 24.5742C13.4718 24.5742 13.2651 24.6042 13.1584 24.6342V26.5976C13.2851 26.6276 13.4434 26.6359 13.6618 26.6359C14.4601 26.6359 14.9518 26.2326 14.9518 25.5509C14.9518 24.9409 14.5284 24.5742 13.7784 24.5742ZM19.5901 24.5942C19.2568 24.5942 19.0401 24.6242 18.9118 24.6542V29.0042C19.0401 29.0342 19.2468 29.0342 19.4334 29.0342C20.7951 29.0442 21.6818 28.2942 21.6818 26.7076C21.6918 25.3242 20.8834 24.5942 19.5901 24.5942Z"
    fill="#5CA6DB"/>
  <path
    d="M23.3334 3.44092H10.0001C9.11603 3.44092 8.26818 3.79211 7.64306 4.41723C7.01794 5.04235 6.66675 5.8902 6.66675 6.77425V33.4409C6.66675 34.325 7.01794 35.1728 7.64306 35.7979C8.26818 36.4231 9.11603 36.7743 10.0001 36.7743H30.0001C30.8841 36.7743 31.732 36.4231 32.3571 35.7979C32.9822 35.1728 33.3334 34.325 33.3334 33.4409V13.4409L23.3334 3.44092ZM15.8301 27.0909C15.3151 27.5743 14.5551 27.7909 13.6701 27.7909C13.4985 27.7942 13.3268 27.7841 13.1567 27.7609V30.1376H11.6667V23.5776C12.3392 23.4776 13.0186 23.4319 13.6984 23.4409C14.6267 23.4409 15.2867 23.6176 15.7317 23.9726C16.1551 24.3093 16.4417 24.8609 16.4417 25.5109C16.4401 26.1642 16.2234 26.7159 15.8301 27.0909ZM22.1751 29.3493C21.4751 29.9309 20.4101 30.2076 19.1084 30.2076C18.3284 30.2076 17.7767 30.1576 17.4017 30.1076V23.5793C18.0745 23.4814 18.7537 23.4352 19.4334 23.4409C20.6951 23.4409 21.5151 23.6676 22.1551 24.1509C22.8467 24.6642 23.2801 25.4826 23.2801 26.6576C23.2801 27.9293 22.8151 28.8076 22.1751 29.3493ZM28.3334 24.7243H25.7801V26.2426H28.1667V27.4659H25.7801V30.1392H24.2701V23.4909H28.3334V24.7243ZM23.3334 15.1076H21.6667V6.77425L30.0001 15.1076H23.3334Z"
    fill="#5CA6DB"/>
</svg>
