<svg width="36" height="36" viewBox="0 0 36 36" fill="none" xmlns="http://www.w3.org/2000/svg">
  <path
    d="M21.971 18.1065L14.546 10.6815C14.2728 10.3986 14.1216 10.0197 14.125 9.62637C14.1284 9.23308 14.2862 8.85686 14.5643 8.57874C14.8424 8.30063 15.2186 8.14288 15.6119 8.13946C16.0052 8.13604 16.3841 8.28723 16.667 8.56047L25.1525 17.046C25.4337 17.3273 25.5917 17.7087 25.5917 18.1065C25.5917 18.5042 25.4337 18.8857 25.1525 19.167L16.667 27.6525C16.3841 27.9257 16.0052 28.0769 15.6119 28.0735C15.2186 28.0701 14.8424 27.9123 14.5643 27.6342C14.2862 27.3561 14.1284 26.9799 14.125 26.5866C14.1216 26.1933 14.2728 25.8144 14.546 25.5315L21.971 18.1065Z"
    fill="currentColor"/>
</svg>
