<svg width="32" height="32" viewBox="0 0 32 32" fill="none" xmlns="http://www.w3.org/2000/svg">
  <path
    d="M27.2273 25.579H4.77279C3.33916 25.579 2.18188 24.5094 2.18188 23.1843V8.81588C2.18188 7.49079 3.33916 6.42114 4.77279 6.42114H27.2273C28.661 6.42114 29.8182 7.49079 29.8182 8.81588V23.1843C29.8182 24.5094 28.661 25.579 27.2273 25.579ZM4.77279 8.01763C4.28916 8.01763 3.90916 8.36886 3.90916 8.81588V23.1843C3.90916 23.6313 4.28916 23.9825 4.77279 23.9825H27.2273C27.711 23.9825 28.091 23.6313 28.091 23.1843V8.81588C28.091 8.36886 27.711 8.01763 27.2273 8.01763H4.77279Z"
    fill="white"/>
  <path
    d="M16.0001 19.405C14.7992 19.405 13.7012 18.9544 12.8777 18.1335L3.8706 9.15201C3.54463 8.83009 3.56179 8.31502 3.90491 8.0092C4.24804 7.70338 4.79704 7.71948 5.12301 8.0414L14.1301 17.0229C15.108 18.0047 16.8922 18.0047 17.8701 17.0229L26.8772 8.05749C27.2032 7.73558 27.7522 7.71948 28.0953 8.0253C28.4384 8.33112 28.4556 8.84619 28.1296 9.1681L19.1226 18.1496C18.2991 18.9704 17.2011 19.4211 16.0001 19.4211V19.405Z"
    fill="white"/>
</svg>
