<svg width="32" height="32" viewBox="0 0 32 32" fill="none" xmlns="http://www.w3.org/2000/svg">
  <rect width="32" height="32" rx="16" fill="#5CA6DB"/>
  <path
    d="M13.3458 19.4125L22.5271 10.2313C22.7437 10.0146 22.9965 9.90625 23.2854 9.90625C23.5743 9.90625 23.8271 10.0146 24.0437 10.2313C24.2604 10.4479 24.3687 10.7054 24.3687 11.0037C24.3687 11.3019 24.2604 11.5591 24.0437 11.775L14.1041 21.7417C13.8875 21.9583 13.6347 22.0667 13.3458 22.0667C13.0569 22.0667 12.8041 21.9583 12.5875 21.7417L7.92914 17.0833C7.71247 16.8667 7.60847 16.6096 7.61714 16.312C7.6258 16.0144 7.73883 15.757 7.95622 15.5396C8.17361 15.3222 8.43108 15.2139 8.72864 15.2146C9.02619 15.2153 9.2833 15.3236 9.49997 15.5396L13.3458 19.4125Z"
    fill="white"/>
</svg>
