<svg width="32" height="32" viewBox="0 0 32 32" fill="none" xmlns="http://www.w3.org/2000/svg">
  <path
    d="M16.0001 16C19.2134 16 21.8182 13.3951 21.8182 10.1818C21.8182 6.96852 19.2134 4.36363 16.0001 4.36363C12.7868 4.36363 10.1819 6.96852 10.1819 10.1818C10.1819 13.3951 12.7868 16 16.0001 16Z"
    stroke="white" stroke-width="2"/>
  <path
    d="M21.988 27.6364H7.55202C7.2031 27.6364 6.85814 27.5652 6.54006 27.4274C6.22197 27.2896 5.93803 27.0885 5.70708 26.8372C5.47612 26.5859 5.30344 26.2904 5.20049 25.9701C5.09753 25.6499 5.06667 25.3122 5.10993 24.9796L5.58974 21.2876C5.70132 20.4299 6.13526 19.6409 6.80996 19.0689C7.48466 18.4969 8.35364 18.1815 9.25349 18.1818H9.68531M21.988 21.1364L23.8334 22.9091L26.9091 19.3636"
    stroke="white" stroke-width="2" stroke-linecap="round" stroke-linejoin="round"/>
</svg>
