<svg width="22" height="22" viewBox="0 0 22 22" fill="none" xmlns="http://www.w3.org/2000/svg">
<path d="M6.22285 2.07823L7.52714 1.68538C8.12087 1.50625 8.75949 1.54932 9.3238 1.80653C9.8881 2.06374 10.3395 2.51752 10.5938 3.08316L11.4054 4.88873C11.6241 5.37514 11.6851 5.91781 11.5796 6.44061C11.4742 6.9634 11.2078 7.44007 10.8177 7.80373L9.3995 9.12609C9.38252 9.14295 9.36822 9.16229 9.35707 9.18345C9.20857 9.48673 9.43407 10.2968 10.1404 11.5209C10.9371 12.9007 11.5524 13.4459 11.8376 13.3619L13.6989 12.7922C14.2087 12.6366 14.7544 12.6443 15.2595 12.8144C15.7646 12.9845 16.2039 13.3083 16.5157 13.7406L17.6691 15.3379C18.0313 15.8395 18.199 16.4554 18.1412 17.0714C18.0834 17.6873 17.804 18.2612 17.3549 18.6867L16.3625 19.6256C16.0174 19.9525 15.5984 20.191 15.1411 20.3208C14.6839 20.4507 14.202 20.468 13.7366 20.3712C10.9733 19.7961 8.4975 17.5709 6.28807 13.7445C4.07785 9.91573 3.38878 6.65502 4.27664 3.97338C4.42526 3.52442 4.67977 3.11784 5.01865 2.78798C5.35753 2.45812 5.77005 2.21468 6.22285 2.07823ZM6.56464 3.20652C6.29295 3.28835 6.04494 3.43438 5.84159 3.63227C5.63823 3.83016 5.48549 4.07409 5.39628 4.34345C4.631 6.65423 5.25092 9.58966 7.3095 13.1552C9.3665 16.7184 11.5964 18.722 13.9779 19.217C14.2571 19.275 14.5462 19.2645 14.8205 19.1865C15.0948 19.1085 15.3462 18.9653 15.5532 18.7692L16.5448 17.831C16.7867 17.602 16.9373 17.293 16.9685 16.9613C16.9997 16.6296 16.9094 16.2979 16.7145 16.0278L15.5611 14.4297C15.3932 14.1969 15.1567 14.0226 14.8848 13.931C14.6129 13.8394 14.3191 13.8352 14.0446 13.9189L12.1786 14.4902C11.1461 14.7974 10.175 13.937 9.12057 12.1094C8.22721 10.5632 7.91764 9.44588 8.2995 8.66566C8.37388 8.51376 8.47288 8.37992 8.5965 8.26416L10.0147 6.9418C10.2248 6.74599 10.3684 6.48929 10.4252 6.20773C10.482 5.92618 10.4492 5.6339 10.3314 5.37195L9.51892 3.56716C9.38202 3.26251 9.1389 3.0181 8.83498 2.87959C8.53105 2.74107 8.1871 2.71792 7.86735 2.81445L6.56464 3.20652Z" fill="#EAF6FF"/>
</svg>
