<svg width="211" height="28" viewBox="0 0 211 28" fill="none" xmlns="http://www.w3.org/2000/svg">
  <path
    d="M205.759 9.49575H210.903V12.6001H205.759V17.7436H202.655V12.6001H197.511V9.49575H202.655V4.35223H205.759V9.49575Z"
    fill="#196CA8"/>
  <path
    d="M184.222 19.7827C182.68 21.3248 180.783 22.0958 178.53 22.0958C176.278 22.0958 174.381 21.3248 172.839 19.7827C171.277 18.2204 170.496 16.3233 170.496 14.0914C170.496 11.8595 171.277 9.96237 172.839 8.40004C174.381 6.858 176.278 6.08698 178.53 6.08698C180.783 6.08698 182.68 6.858 184.222 8.40004C185.784 9.96237 186.565 11.8595 186.565 14.0914C186.565 16.3233 185.784 18.2204 184.222 19.7827ZM173.783 14.0914C173.783 15.4711 174.239 16.6175 175.152 17.5305C176.065 18.4436 177.191 18.9001 178.53 18.9001C179.87 18.9001 180.996 18.4436 181.909 17.5305C182.822 16.6175 183.278 15.4711 183.278 14.0914C183.278 12.7117 182.822 11.5653 181.909 10.6522C180.996 9.73918 179.87 9.28265 178.53 9.28265C177.191 9.28265 176.065 9.73918 175.152 10.6522C174.239 11.5653 173.783 12.7117 173.783 14.0914Z"
    fill="#196CA8"/>
  <path
    d="M160.486 6.08698C162.556 6.08698 164.341 6.86814 165.843 8.43047C167.324 9.97251 168.064 11.8595 168.064 14.0914C168.064 16.3436 167.324 18.2407 165.843 19.7827C164.362 21.3248 162.576 22.0958 160.486 22.0958C158.193 22.0958 156.418 21.2436 155.16 19.5393V27.7871H151.873V6.48263H155.16V8.67395C156.398 6.9493 158.173 6.08698 160.486 6.08698ZM156.53 17.5914C157.443 18.5045 158.589 18.961 159.969 18.961C161.348 18.961 162.495 18.5045 163.408 17.5914C164.321 16.6581 164.777 15.4914 164.777 14.0914C164.777 12.6914 164.321 11.5348 163.408 10.6218C162.495 9.68845 161.348 9.22178 159.969 9.22178C158.589 9.22178 157.443 9.68845 156.53 10.6218C155.617 11.5348 155.16 12.6914 155.16 14.0914C155.16 15.4711 155.617 16.6378 156.53 17.5914Z"
    fill="#196CA8"/>
  <path d="M139.145 6.48267H149.341V9.64791H142.432V21.7002H139.145V6.48267Z" fill="#196CA8"/>
  <path
    d="M136.763 21.7002H132.989L131.497 17.4089H122.428L120.936 21.7002H117.132L124.863 0.395691H129.063L136.763 21.7002ZM126.963 4.50442L123.584 14.1219H130.341L126.963 4.50442Z"
    fill="#196CA8"/>
  <path
    d="M101.367 22.0958C99.0741 22.0958 97.1567 21.3248 95.6147 19.7827C94.0929 18.2204 93.332 16.3233 93.332 14.0914C93.332 11.8189 94.0929 9.92179 95.6147 8.40004C97.1567 6.858 99.0741 6.08698 101.367 6.08698C102.848 6.08698 104.197 6.44205 105.415 7.1522C106.632 7.86235 107.545 8.81598 108.154 10.0131L105.323 11.6566C104.979 10.9261 104.451 10.358 103.741 9.95222C103.051 9.52613 102.249 9.31309 101.336 9.31309C99.9973 9.31309 98.8712 9.76961 97.9582 10.6827C97.0654 11.616 96.619 12.7522 96.619 14.0914C96.619 15.4305 97.0654 16.5668 97.9582 17.5001C98.8712 18.4132 99.9973 18.8697 101.336 18.8697C102.229 18.8697 103.031 18.6668 103.741 18.261C104.471 17.8349 105.019 17.2566 105.384 16.5262L108.215 18.1392C107.565 19.3566 106.622 20.3204 105.384 21.0306C104.167 21.7407 102.828 22.0958 101.367 22.0958Z"
    fill="#5CA6DB"/>
  <path
    d="M79.7486 16.1306L87.5399 6.48267H90.066V21.7002H86.8399V12.0218L79.0486 21.7002H76.5225V6.48267H79.7486V16.1306Z"
    fill="#5CA6DB"/>
  <path
    d="M71.2935 13.8784C72.7949 14.5885 73.5456 15.7552 73.5456 17.3784C73.5456 18.677 73.0993 19.7219 72.2065 20.5132C71.334 21.3045 70.1166 21.7002 68.5543 21.7002H60.7629V6.48267H67.9456C69.4876 6.48267 70.6949 6.86818 71.5674 7.6392C72.4398 8.41022 72.8761 9.42472 72.8761 10.6827C72.8761 12.1233 72.3485 13.1885 71.2935 13.8784ZM67.7021 9.28269H63.8977V12.661H67.7021C69.0413 12.661 69.7108 12.0929 69.7108 10.9566C69.7108 9.84066 69.0413 9.28269 67.7021 9.28269ZM63.8977 18.8393H68.25C69.6297 18.8393 70.3195 18.2407 70.3195 17.0436C70.3195 16.5161 70.1369 16.1103 69.7717 15.8262C69.4065 15.5219 68.8992 15.3697 68.25 15.3697H63.8977V18.8393Z"
    fill="#5CA6DB"/>
  <path
    d="M49.9012 6.08698C51.9708 6.08698 53.7563 6.86814 55.2578 8.43047C56.7389 9.97251 57.4795 11.8595 57.4795 14.0914C57.4795 16.3436 56.7389 18.2407 55.2578 19.7827C53.7766 21.3248 51.9911 22.0958 49.9012 22.0958C47.6084 22.0958 45.833 21.2436 44.5751 19.5393V27.7871H41.2881V6.48263H44.5751V8.67395C45.8128 6.9493 47.5881 6.08698 49.9012 6.08698ZM45.9446 17.5914C46.8577 18.5045 48.0041 18.961 49.3838 18.961C50.7635 18.961 51.9099 18.5045 52.823 17.5914C53.736 16.6581 54.1925 15.4914 54.1925 14.0914C54.1925 12.6914 53.736 11.5348 52.823 10.6218C51.9099 9.68845 50.7635 9.22178 49.3838 9.22178C48.0041 9.22178 46.8577 9.68845 45.9446 10.6218C45.0316 11.5348 44.5751 12.6914 44.5751 14.0914C44.5751 15.4711 45.0316 16.6378 45.9446 17.5914Z"
    fill="#5CA6DB"/>
  <path
    d="M37.9695 15.4914H25.8564C26.0999 16.6276 26.6477 17.5103 27.4999 18.1392C28.3724 18.7682 29.4477 19.0827 30.726 19.0827C32.4506 19.0827 33.7594 18.4537 34.6521 17.1958L37.3608 18.7784C35.8797 20.99 33.6579 22.0958 30.6956 22.0958C28.2405 22.0958 26.2419 21.3451 24.6999 19.8436C23.1781 18.3219 22.4172 16.4044 22.4172 14.0914C22.4172 11.8392 23.168 9.94208 24.6694 8.40004C26.1506 6.858 28.0782 6.08698 30.4521 6.08698C32.6637 6.08698 34.4898 6.86814 35.9304 8.43047C37.371 9.9928 38.0913 11.8899 38.0913 14.1218C38.0913 14.5276 38.0507 14.9841 37.9695 15.4914ZM25.826 12.8131H34.7739C34.5507 11.616 34.0434 10.6928 33.2521 10.0435C32.4811 9.39425 31.5376 9.06961 30.4216 9.06961C29.2042 9.06961 28.1897 9.40439 27.3781 10.074C26.5665 10.7435 26.0491 11.6566 25.826 12.8131Z"
    fill="#5CA6DB"/>
  <path
    d="M11.1392 22.0958C7.9334 22.0958 5.2754 21.0407 3.16524 18.9306C1.05508 16.7798 0 14.1523 0 11.0479C0 7.92325 1.05508 5.30584 3.16524 3.19568C5.25511 1.06523 7.91311 0 11.1392 0C13.0668 0 14.8421 0.456525 16.4653 1.36958C18.1088 2.28263 19.3871 3.52032 20.3002 5.08265L17.2567 6.84788C16.6885 5.7928 15.8566 4.96091 14.761 4.35221C13.6856 3.72322 12.4784 3.40872 11.1392 3.40872C8.88703 3.40872 7.04064 4.12902 5.60004 5.56961C4.20003 6.98991 3.50003 8.81601 3.50003 11.0479C3.50003 13.2798 4.20003 15.1059 5.60004 16.5262C7.04064 17.9668 8.88703 18.6871 11.1392 18.6871C12.4784 18.6871 13.6958 18.3828 14.7914 17.7741C15.8871 17.1451 16.7088 16.303 17.2567 15.2479L20.3002 16.9827C19.4277 18.5248 18.1596 19.7726 16.4958 20.7262C14.8929 21.6393 13.1073 22.0958 11.1392 22.0958Z"
    fill="#5CA6DB"/>
</svg>
