<svg xmlns="http://www.w3.org/2000/svg" xmlns:xlink="http://www.w3.org/1999/xlink"><symbol id="icon__apple" viewBox="0 0 107 107"><g fill="none"><path d="M62.417 13.375v17.833a4.458 4.458 0 004.458 4.459h17.833" stroke="#fff" stroke-width="5" stroke-linecap="round" stroke-linejoin="round"/><path d="M53.5 93.625H31.208a8.917 8.917 0 01-8.916-8.917V22.292a8.917 8.917 0 018.916-8.917h31.209l22.291 22.292v20.062" stroke="#fff" stroke-width="5" stroke-linecap="round" stroke-linejoin="round"/><path d="M77 92.198c2.55 0 4.675 1.802 6.8 1.802C88.9 94 94 80.4 94 73.226a8.347 8.347 0 00-8.5-8.126c-3.774 0-6.8 2.448-8.5 3.4-1.7-.952-4.726-3.4-8.5-3.4a8.33 8.33 0 00-8.5 8.126C60 80.4 65.1 94 70.2 94c2.125 0 4.25-1.802 6.8-1.802zM73.6 60c1.7.85 3.4 3.4 3.4 8.5" stroke="#fff" stroke-width="5" stroke-linecap="round" stroke-linejoin="round"/></g></symbol><symbol id="icon__arrow--next" viewBox="0 0 36 36"><g fill="none"><path d="M21.971 18.107l-7.425-7.425a1.5 1.5 0 012.121-2.122l8.485 8.486a1.5 1.5 0 010 2.121l-8.485 8.485a1.5 1.5 0 01-2.121-2.12l7.425-7.425z" fill="currentColor"/></g></symbol><symbol id="icon__arrow--prev" viewBox="0 0 36 36"><g fill="none"><path d="M16.029 18.107l7.425-7.425a1.5 1.5 0 00-2.121-2.122l-8.485 8.486a1.5 1.5 0 000 2.121l8.485 8.485a1.5 1.5 0 002.121-2.12l-7.425-7.425z" fill="currentColor"/></g></symbol><symbol id="icon__arrow" viewBox="0 0 36 36"><g fill="none"><path d="M1 2h33v33m-.293-32.293l-32 32" stroke="#fff" stroke-width="2"/></g></symbol><symbol id="icon__box" viewBox="0 0 33 32"><g fill="none"><path d="M28.413 14.679v-2.955a3.973 3.973 0 00-2.038-3.48l-7.943-4.41a3.973 3.973 0 00-3.864 0l-7.943 4.41a3.973 3.973 0 00-2.038 3.481v8.552a3.973 3.973 0 002.038 3.48l7.943 4.41a3.973 3.973 0 003.864 0l3.363-1.867" stroke="#fff" stroke-width="2" stroke-linecap="round" stroke-linejoin="round"/><path d="M27.607 9.328L16.5 16m0 0L5.393 9.328M16.5 16v12.653m7.288-7.325l1.877 1.876a.709.709 0 001.01 0l3.78-3.781" stroke="#fff" stroke-width="2" stroke-linecap="round" stroke-linejoin="round"/></g></symbol><symbol id="icon__building" viewBox="0 0 32 32"><g fill="none"><path d="M29 28h-3V4h1a1 1 0 100-2H5a1 1 0 000 2h1v24H3a1 1 0 000 2h26a1 1 0 000-2zM8 4h16v24h-4v-5a1 1 0 00-1-1h-6a1 1 0 00-1 1v5H8V4zm10 24h-4v-4h4v4zM11 8a1 1 0 011-1h2a1 1 0 110 2h-2a1 1 0 01-1-1zm6 0a1 1 0 011-1h2a1 1 0 110 2h-2a1 1 0 01-1-1zm-6 5a1 1 0 011-1h2a1 1 0 010 2h-2a1 1 0 01-1-1zm6 0a1 1 0 011-1h2a1 1 0 010 2h-2a1 1 0 01-1-1zm-6 5a1 1 0 011-1h2a1 1 0 010 2h-2a1 1 0 01-1-1zm6 0a1 1 0 011-1h2a1 1 0 010 2h-2a1 1 0 01-1-1z" fill="#fff"/></g></symbol><symbol id="icon__bullet" viewBox="0 0 32 32"><g fill="none"><rect width="32" height="32" rx="16" fill="#5CA6DB"/><path d="M13.346 19.413l9.181-9.182a1.04 1.04 0 01.758-.325c.29 0 .542.109.759.325.216.217.325.474.325.773 0 .298-.109.555-.325.771l-9.94 9.967a1.04 1.04 0 01-.758.325 1.04 1.04 0 01-.758-.325l-4.659-4.659a1.01 1.01 0 01-.312-.771c.009-.298.122-.555.34-.772.217-.218.474-.326.772-.325.297 0 .554.109.771.325l3.846 3.873z" fill="#fff"/></g></symbol><symbol id="icon__close" viewBox="0 0 34 34"><g fill="none"><path d="M25.925 8.09a1.41 1.41 0 00-1.998 0L17 15.001l-6.928-6.927a1.412 1.412 0 10-1.997 1.998L15.002 17l-6.927 6.927a1.413 1.413 0 001.997 1.998L17 18.997l6.927 6.928a1.412 1.412 0 001.998-1.998L18.997 17l6.928-6.928a1.42 1.42 0 000-1.983z" fill="#196CA8"/></g></symbol><symbol id="icon__cross" viewBox="0 0 28 28"><g fill="none"><path d="M7.467 22.167l-1.633-1.634L12.367 14 5.833 7.467l1.634-1.634L14 12.367l6.534-6.534 1.633 1.634L15.633 14l6.534 6.533-1.634 1.634L14 15.633l-6.533 6.534z" fill="#000"/></g></symbol><symbol id="icon__email" viewBox="0 0 32 32"><g fill="none"><path d="M27.227 25.579H4.773c-1.434 0-2.591-1.07-2.591-2.395V8.816c0-1.325 1.157-2.395 2.59-2.395h22.455c1.434 0 2.591 1.07 2.591 2.395v14.368c0 1.325-1.157 2.395-2.59 2.395zM4.773 8.018c-.484 0-.864.35-.864.798v14.368c0 .447.38.799.864.799h22.454c.484 0 .864-.352.864-.799V8.816c0-.447-.38-.798-.864-.798H4.773z" fill="#fff"/><path d="M16 19.405c-1.2 0-2.299-.45-3.122-1.271L3.87 9.152a.777.777 0 01.034-1.143.906.906 0 011.218.032l9.007 8.982c.978.982 2.762.982 3.74 0l9.007-8.966a.906.906 0 011.218-.032c.343.306.36.821.035 1.143l-9.007 8.982A4.367 4.367 0 0116 19.42v-.016z" fill="#fff"/></g></symbol><symbol id="icon__file" viewBox="0 0 107 107"><g fill="none"><path d="M62.417 13.375v17.833a4.458 4.458 0 004.458 4.459h17.833" stroke="#fff" stroke-width="5" stroke-linecap="round" stroke-linejoin="round"/><path d="M53.5 93.625H31.208a8.917 8.917 0 01-8.916-8.917V22.292a8.917 8.917 0 018.916-8.917h31.209l22.291 22.292v20.062" stroke="#fff" stroke-width="5" stroke-linecap="round" stroke-linejoin="round"/><path d="M82.48 86.938l11.145 11.145M62.417 78.021a11.145 11.145 0 1022.29 0 11.145 11.145 0 00-22.29 0z" stroke="#fff" stroke-width="5" stroke-linecap="round" stroke-linejoin="round"/></g></symbol><symbol id="icon__gem" viewBox="0 0 32 32"><g fill="none"><path d="M16 26.667l-9.76-12.2c-.444-.555-.667-.832-.725-1.166-.059-.333.053-.67.277-1.344l.992-2.977c.587-1.76.88-2.64 1.579-3.143.698-.502 1.626-.504 3.481-.504h8.312c1.855 0 2.783 0 3.48.504.7.503.993 1.383 1.58 3.143l.992 2.977c.224.674.336 1.01.277 1.344-.06.334-.281.611-.725 1.166L16 26.667zm0 0L20.667 12M16 26.667L11.333 12m9.334 0L26 13.333M20.667 12l-2-5.333m2 5.333h-9.334m0 0l2-5.333m-2 5.333L6 13.333" stroke="#fff" stroke-width="2" stroke-linecap="round"/></g></symbol><symbol id="icon__lab" viewBox="0 0 107 107"><g fill="none"><path d="M98.083 13.375H57.958m17.834 17.833H62.417M78.02 93.625a15.605 15.605 0 01-15.604-15.604V13.375h31.208v64.646A15.605 15.605 0 0178.02 93.625zm-33.438-18.39c0 13.544-8.916 18.39-17.833 18.39-8.917 0-17.833-4.846-17.833-18.39 0-13.545 17.833-30.652 17.833-30.652S44.583 61.69 44.583 75.234z" stroke="#fff" stroke-width="5" stroke-linecap="round" stroke-linejoin="round"/><path d="M62.417 53.5c4.828-3.86 10.24-9.46 16.812-5.515 5.484 3.29 10.09-.174 14.396-3.402" stroke="#fff" stroke-width="5" stroke-linecap="round" stroke-linejoin="round"/></g></symbol><symbol id="icon__pdf" viewBox="0 0 40 41"><g fill="none"><path d="M13.778 24.574c-.306 0-.513.03-.62.06v1.964c.127.03.285.038.504.038.798 0 1.29-.403 1.29-1.085 0-.61-.424-.977-1.174-.977zm5.812.02c-.333 0-.55.03-.678.06v4.35c.128.03.335.03.521.03 1.362.01 2.249-.74 2.249-2.326.01-1.384-.799-2.114-2.092-2.114z" fill="#5CA6DB"/><path d="M23.333 3.44H10a3.333 3.333 0 00-3.333 3.334v26.667A3.333 3.333 0 0010 36.774h20a3.333 3.333 0 003.333-3.333v-20l-10-10zM15.83 27.09c-.515.484-1.275.7-2.16.7a3.326 3.326 0 01-.513-.03v2.378h-1.49v-6.56c.672-.1 1.352-.146 2.031-.137.929 0 1.589.177 2.034.532.423.336.71.888.71 1.538-.002.653-.219 1.205-.612 1.58zm6.345 2.26c-.7.58-1.765.858-3.067.858-.78 0-1.331-.05-1.706-.1v-6.529a13.333 13.333 0 012.031-.138c1.262 0 2.082.227 2.722.71.692.513 1.125 1.332 1.125 2.507 0 1.271-.465 2.15-1.105 2.691zm6.158-4.626H25.78v1.519h2.387v1.223H25.78v2.673h-1.51v-6.648h4.063v1.233zm-5-9.616h-1.666V6.774L30 15.108h-6.667z" fill="#5CA6DB"/></g></symbol><symbol id="icon__phone" viewBox="0 0 32 32"><g fill="none"><path d="M9.051 3.023l1.897-.571a3.714 3.714 0 014.461 2.033l1.18 2.626a3.714 3.714 0 01-.854 4.24l-2.063 1.923a.341.341 0 00-.062.084c-.216.441.112 1.62 1.14 3.4 1.159 2.007 2.053 2.8 2.468 2.678l2.708-.829a3.714 3.714 0 014.097 1.38L25.7 22.31a3.714 3.714 0 01-.458 4.87L23.8 28.547a4.285 4.285 0 01-3.82 1.085c-4.019-.837-7.62-4.073-10.834-9.639C5.931 14.422 4.93 9.68 6.22 5.78a4.286 4.286 0 012.831-2.757zm.498 1.641a2.571 2.571 0 00-1.7 1.654c-1.113 3.361-.211 7.63 2.783 12.817 2.992 5.183 6.235 8.097 9.7 8.817a2.57 2.57 0 002.29-.651l1.443-1.365a2 2 0 00.247-2.623l-1.678-2.324a2 2 0 00-2.206-.743l-2.714.83c-1.502.447-2.914-.804-4.448-3.462-1.3-2.25-1.75-3.875-1.194-5.01.108-.22.252-.415.432-.583l2.063-1.924a2 2 0 00.46-2.283l-1.181-2.625a2 2 0 00-2.403-1.095l-1.894.57z" fill="#fff"/></g></symbol><symbol id="icon__pin" viewBox="0 0 32 33"><g fill="none"><path d="M25 28.5h-6.183a33.36 33.36 0 002.933-2.969C25.181 21.585 27 17.425 27 13.5a11 11 0 10-22 0c0 3.925 1.814 8.085 5.25 12.031a33.36 33.36 0 002.932 2.969H7a1 1 0 000 2h18a1 1 0 000-2zm-18-15a9 9 0 0118 0c0 7.154-6.934 13.125-9 14.75-2.066-1.625-9-7.596-9-14.75zm14 0a5 5 0 10-10 0 5 5 0 0010 0zm-8 0a3 3 0 115.999 0 3 3 0 01-5.999 0z" fill="#fff"/></g></symbol><symbol id="icon__user" viewBox="0 0 32 32"><g fill="none"><path d="M16 16a5.818 5.818 0 100-11.636A5.818 5.818 0 0016 16z" stroke="#fff" stroke-width="2"/><path d="M21.988 27.636H7.552c-.349 0-.694-.07-1.012-.209a2.456 2.456 0 01-.833-.59 2.34 2.34 0 01-.507-.867 2.275 2.275 0 01-.09-.99l.48-3.692a3.505 3.505 0 011.22-2.22 3.78 3.78 0 012.443-.886h.432m12.303 2.954l1.845 1.773 3.076-3.545" stroke="#fff" stroke-width="2" stroke-linecap="round" stroke-linejoin="round"/></g></symbol><symbol id="logo__agro" viewBox="0 0 211 28"><g fill="none"><path d="M205.759 9.496h5.144V12.6h-5.144v5.144h-3.104V12.6h-5.144V9.496h5.144V4.352h3.104v5.144zm-21.537 10.287c-1.542 1.542-3.439 2.313-5.692 2.313-2.252 0-4.149-.771-5.691-2.313-1.562-1.563-2.343-3.46-2.343-5.692 0-2.231.781-4.129 2.343-5.691 1.542-1.542 3.439-2.313 5.691-2.313 2.253 0 4.15.771 5.692 2.313 1.562 1.562 2.343 3.46 2.343 5.691 0 2.232-.781 4.13-2.343 5.692zm-10.439-5.692c0 1.38.456 2.527 1.369 3.44.913.913 2.039 1.37 3.378 1.37 1.34 0 2.466-.457 3.379-1.37.913-.913 1.369-2.06 1.369-3.44s-.456-2.526-1.369-3.439c-.913-.913-2.039-1.37-3.379-1.37-1.339 0-2.465.457-3.378 1.37-.913.913-1.369 2.06-1.369 3.44zm-13.297-8.004c2.07 0 3.855.781 5.357 2.343 1.481 1.543 2.221 3.43 2.221 5.661 0 2.253-.74 4.15-2.221 5.692-1.481 1.542-3.267 2.313-5.357 2.313-2.293 0-4.068-.852-5.326-2.557v8.248h-3.287V6.483h3.287v2.191c1.238-1.725 3.013-2.587 5.326-2.587zm-3.956 11.504c.913.913 2.059 1.37 3.439 1.37 1.379 0 2.526-.456 3.439-1.37.913-.933 1.369-2.1 1.369-3.5s-.456-2.556-1.369-3.47c-.913-.933-2.06-1.4-3.439-1.4-1.38 0-2.526.467-3.439 1.4-.913.914-1.37 2.07-1.37 3.47 0 1.38.457 2.547 1.37 3.5zM139.145 6.483h10.196v3.165h-6.909V21.7h-3.287V6.483zM136.763 21.7h-3.774l-1.492-4.291h-9.069l-1.492 4.291h-3.804L124.863.396h4.2l7.7 21.304zm-9.8-17.196l-3.379 9.618h6.757l-3.378-9.618z" fill="#196CA8"/><path d="M101.367 22.096c-2.293 0-4.21-.771-5.752-2.313-1.522-1.563-2.283-3.46-2.283-5.692 0-2.272.76-4.17 2.283-5.691 1.542-1.542 3.46-2.313 5.752-2.313 1.481 0 2.83.355 4.048 1.065 1.217.71 2.13 1.664 2.739 2.861l-2.831 1.644a3.777 3.777 0 00-1.582-1.705c-.69-.426-1.492-.639-2.405-.639-1.339 0-2.465.457-3.378 1.37-.893.933-1.339 2.07-1.339 3.408 0 1.34.446 2.476 1.34 3.41.912.912 2.038 1.369 3.377 1.369.893 0 1.695-.203 2.405-.609a4.101 4.101 0 001.643-1.735l2.831 1.613c-.65 1.218-1.593 2.181-2.831 2.892-1.217.71-2.556 1.065-4.017 1.065zM79.749 16.13l7.79-9.647h2.527V21.7H86.84v-9.678L79.049 21.7h-2.527V6.483h3.227v9.648zm-8.456-2.252c1.502.71 2.253 1.877 2.253 3.5 0 1.299-.447 2.344-1.34 3.135-.872.791-2.09 1.187-3.652 1.187h-7.791V6.483h7.183c1.542 0 2.749.385 3.621 1.156.873.771 1.31 1.786 1.31 3.044 0 1.44-.528 2.505-1.584 3.195zm-3.59-4.595h-3.805v3.378h3.804c1.34 0 2.009-.568 2.009-1.704 0-1.116-.67-1.674-2.009-1.674zm-3.805 9.556h4.352c1.38 0 2.07-.598 2.07-1.795 0-.528-.183-.934-.548-1.218-.366-.304-.873-.456-1.522-.456h-4.352v3.47zM49.901 6.087c2.07 0 3.855.781 5.357 2.343 1.48 1.543 2.221 3.43 2.221 5.661 0 2.253-.74 4.15-2.221 5.692-1.481 1.542-3.267 2.313-5.357 2.313-2.293 0-4.068-.852-5.326-2.557v8.248h-3.287V6.483h3.287v2.191c1.238-1.725 3.013-2.587 5.326-2.587zm-3.956 11.504c.913.913 2.06 1.37 3.439 1.37 1.38 0 2.526-.456 3.439-1.37.913-.933 1.37-2.1 1.37-3.5s-.457-2.556-1.37-3.47c-.913-.933-2.06-1.4-3.44-1.4-1.379 0-2.525.467-3.438 1.4-.913.914-1.37 2.07-1.37 3.47 0 1.38.457 2.547 1.37 3.5zm-7.975-2.1H25.855c.244 1.137.792 2.02 1.644 2.648.872.63 1.948.944 3.226.944 1.725 0 3.033-.63 3.926-1.887l2.709 1.582c-1.481 2.212-3.703 3.318-6.665 3.318-2.456 0-4.454-.75-5.996-2.252-1.522-1.522-2.283-3.44-2.283-5.753 0-2.252.751-4.149 2.252-5.691 1.482-1.542 3.41-2.313 5.783-2.313 2.212 0 4.038.781 5.478 2.343 1.441 1.563 2.161 3.46 2.161 5.692 0 .406-.04.862-.122 1.37zm-12.144-2.678h8.948c-.223-1.197-.73-2.12-1.522-2.77-.77-.649-1.714-.973-2.83-.973-1.218 0-2.232.334-3.044 1.004-.811.67-1.329 1.583-1.552 2.74zM11.14 22.096c-3.207 0-5.865-1.055-7.975-3.165C1.055 16.78 0 14.152 0 11.048c0-3.125 1.055-5.742 3.165-7.852C5.255 1.066 7.913 0 11.14 0c1.928 0 3.703.457 5.326 1.37 1.644.913 2.922 2.15 3.835 3.713l-3.043 1.765c-.569-1.055-1.4-1.887-2.496-2.496-1.075-.629-2.283-.943-3.622-.943-2.252 0-4.098.72-5.539 2.16-1.4 1.42-2.1 3.247-2.1 5.479s.7 4.058 2.1 5.478c1.44 1.44 3.287 2.161 5.54 2.161 1.338 0 2.556-.304 3.651-.913 1.096-.629 1.918-1.471 2.466-2.526l3.043 1.735c-.872 1.542-2.14 2.79-3.804 3.743-1.603.913-3.389 1.37-5.357 1.37z" fill="#5CA6DB"/></g></symbol><view id="icon__default-view" viewBox="0 80 24 24"/><use href="#icon__default" width="24" height="24" x="0" y="80"/></svg>